<svg width="32" height="30" viewBox="0 0 32 30" fill="none" xmlns="http://www.w3.org/2000/svg">
<path d="M3.14312 29.056C5.51434 26.9581 6.38786 23.7553 6.21221 20.6967C6.12439 19.2123 5.92522 17.404 5.09561 16.2109C4.70354 15.6733 3.88648 14.6847 3.22781 15.2069C3.0898 15.3262 3.10235 15.3463 3.07098 15.5121C3.09607 17.3576 4.63925 18.9241 6.31729 19.6043C8.97706 20.723 12.283 20.2737 14.3797 18.2609C16.2475 16.5007 17.1038 13.8449 17.3579 11.3441C17.499 9.6598 17.2434 7.97088 16.5235 6.45705C16.0829 5.59399 15.5308 4.59458 14.5977 4.21806C13.663 3.84464 12.7534 4.63797 12.3002 5.4189C11.2103 7.24573 11.5757 9.68459 11.9536 11.733C12.7879 16.2574 16.3479 19.4819 21.0401 19.6043C23.8144 19.7282 26.5024 18.3213 27.6519 15.7647C27.9264 15.1837 28.8172 15.4688 28.6948 16.0994C28.5835 16.6432 28.3953 17.1732 28.1491 17.6798C27.3979 19.2309 26.0962 20.4875 24.5201 21.2483C21.8776 22.5157 18.7364 22.5018 15.9903 21.5535C13.1769 20.5665 10.7837 18.4701 9.4099 15.853C8.58813 14.2989 8.10354 12.6611 7.81655 10.9706C7.35861 8.48065 7.35391 5.65752 8.72771 3.33952C11.3248 -1.03153 16.602 -1.1214 19.3919 3.12724C21.749 6.62129 22.0125 11.1829 20.7077 15.0922C19.9894 17.3421 18.8007 19.5268 16.9721 21.098C15.1121 22.7203 12.6782 23.7119 10.1956 23.7848C5.50179 23.9986 0.398661 21.0732 0.0128681 16.0916C-0.13298 14.2989 0.971077 12.6704 2.81065 12.3047C4.75059 11.8848 6.46157 13.3119 7.33196 14.8753C8.49247 17.0058 8.47522 19.2309 8.32623 21.5101C8.12079 23.667 7.46683 25.8548 6.16203 27.6259C5.51277 28.5137 4.71766 29.2885 3.82688 29.9021C3.57753 30.074 3.23408 30.0136 3.06157 29.7672C2.90161 29.541 2.94082 29.2358 3.14155 29.056H3.14312Z" fill="white"/>
<path d="M27.6853 6.72198C27.861 6.28348 28.4883 6.28348 28.6639 6.72198L29.4292 8.64022C29.4826 8.77347 29.5892 8.88039 29.7256 8.93307L31.6671 9.68921C32.111 9.86275 32.111 10.4825 31.6671 10.6561L29.7256 11.4122C29.5908 11.4649 29.4826 11.5703 29.4292 11.7051L28.6639 13.6233C28.4883 14.0618 27.861 14.0618 27.6853 13.6233L26.92 11.7051C26.8667 11.5718 26.76 11.4649 26.6236 11.4122L24.6821 10.6561C24.2383 10.4825 24.2383 9.86275 24.6821 9.68921L26.6236 8.93307C26.7585 8.88039 26.8667 8.77502 26.92 8.64022L27.6853 6.72198Z" fill="white"/>
</svg>
